<svg id="Layer_1" data-name="Layer 1" xmlns="http://www.w3.org/2000/svg" viewBox="0 0 792 168.94"><path d="M194.58,66.69c1.26-.2,2.5-.45,3.76-.61,1.47-.18,3-.24,4.42-.49.27,0,.42-1.08.63-1.09,1.55,0,3.1.13,4.46.21.23.52.33,1.11.52,1.14.55.09,1.13,0,1.51.38l4.65,1.24c-1.29,1.61.32,1.29,1.51,1.63.74.22,1.27,1.16,2.31,1.17l3.52,3-.4.25c1.07,1.52,2.2,3,3.16,4.6.23.37-.13,1.08-.13,1.63a4.46,4.46,0,0,0,.28,1,2.3,2.3,0,0,1,.38-.71c.2-.17.6-.37.76-.28.56.32,1.06.76.84,1.44.32.7.66,1.39,1,2.1.08.18.18.47.09.57a5.65,5.65,0,0,1-.84.7l.86.79-1.1.39c.4.24.95.39,1.16.74a7.56,7.56,0,0,1,.52,1.69c.23.74.49,1.46.67,2.31.15.49.29,1,.43,1.46a3.47,3.47,0,0,1,.29,1.29c-.32,1.78-1.51,3.54.14,5.29.15.16,0,.79-.2,1.06a6.45,6.45,0,0,1-1.23,1,10.41,10.41,0,0,1-4.71,9.26s-.28-.19-.56-.39c0,.35,0,.7-.05,1,0,.18-.11.46-.24.52-1.53.65-3.08,1.25-4.61,1.93-.32.14-.53.53-1.13.26-1.24.88-2.44,1.81-3.71,2.63a9,9,0,0,1-2.39,1.09c-1.5.41-3,.68-4.56,1-.57.11-1.16.16-1.72.24,0-.63-.05-1.06-.07-1.5-.32.19-.73.61-.92.52a4.28,4.28,0,0,1-1.12-.7c-1.41.47-2.46.89-3.54,1.17-1.24.31-2.87.09-3.71.81-2.25,1.93-3.9.36-5.55-.62a54,54,0,0,1-5-3.7l-.54.81c-.3-.22-.59-.46-.91-.66a4.42,4.42,0,0,0-1.18-.61c-.81-.2-1.66-.25-2.47-.45-2.87-.69-6.12-.82-8.49-2.33-1.88-1.2-3.92-1.17-5.72-2.18a16.66,16.66,0,0,0-4.65-1.5c-3-.64-6.09-1-9.08-1.74-1.36-.33-2.54-1.37-3.89-1.85a43.34,43.34,0,0,0-4.26-1c-.34-.08-.65-.32-1-.39-1.11-.26-2.21-.5-3.33-.69-1.33-.22-2.66-.39-4.06-.59,1.33,1.82,2.75,3.67,4.07,5.6a54.72,54.72,0,0,1,4.35,6.9c.31.64-.8,2.09-1.44,3a10.46,10.46,0,0,1-2.81,3.3c-.8.47-2.32.08-3.38-.32-6.15-2.34-6.95-8.8-10.11-13.44-1.87-2.76-3.35-5.79-5.07-8.66-.15-.25-.74-.22-1.11-.36-2.73-1-5.47-2.1-8.18-3.19-.16-.06-.21-.43-.27-.67-.36-1.24-.79-2.47-1-3.73s-.92-2.71,1.51-3.27,1.4-2.38.54-3.89c-2.09-3.66-4.12-7.36-6.17-11-.1-.17-.23-.32-.31-.49-.27-.51-.52-1-.77-1.54l1.68-.35c-1-.44-3.13-.51-1.26-2.55a.86.86,0,0,1,.37-.26c.67-.19,1.36-.35,2-.53-.85-.34-1.71-.67-2.56-1-.06,0-.11-.09-.25-.19,1.4-1.42,3.75-2.07,4.31-4.13l-.66-.67,2.06-.66-1.06-.77-.61-.4c.09-.11.16-.3.27-.34.29-.08.66-.23.87-.11.71.37,1.37.84,2,1.27L113,58l-2.13-3c.24.07.58.15.91.27s.51.37.59.32c1.26-.87,2.5-1.77,3.7-2.71a12.93,12.93,0,0,0-.75-1.16l2,.24,4.18-1.45c1-.35,2.11-.66,3.14-1,.17-.06.25-.39.34-.6.21-.54.39-1.09.58-1.63.6.25,1.55.35,1.72.77,1.12,2.74,3.22,1.44,5,1.37a1.4,1.4,0,0,1,.58,0,1.11,1.11,0,0,0,1.33-.12l8.57,3.36-.56.46a11.27,11.27,0,0,1,1.19,1.58c.24.45.25,1,.88,1,.69.58,1.37,1.17,2.08,1.73a1.47,1.47,0,0,0,.81.35c.33,0,.89-.33.94-.25a14.22,14.22,0,0,1,1,1.95,3.28,3.28,0,0,0,1.46,2l-.48-1.08c.63-.17,1.46-.68,1.84-.45a10,10,0,0,1,1.92,2.18l.55.1-.37,3.37c.49,0,1,.07,1.48.08s.86,0,1.29,0c.06,0,.16.37.15.37-.41.2-.84.35-1.25.55-.61.29-1.22.59-1.81.92s-.88.56-1.6,1a40.39,40.39,0,0,1,1.38,4c.09.35-.62.89-1.1,1.52l1.51,1.41c-.28,1.21-3.69.31-2,3l-1.24.58.45.94-5.07,4.35-1,3.72-.73.46c1,.83,2,1.67,3,2.48.38.3.82.54,1.22.82s.7.51,1,.77c.47-1,1.72,1.95,2-.37,0-.1.55-.29.69-.2,1.33.86,2.62,1.77,4,2.7l-.16.19c1.91.43,3.82.76,5.66,1.32a11.18,11.18,0,0,1,2.55,1.49c1.12.72,2.21,1.48,3.35,2.17.18.11.54-.06.81-.13a7.32,7.32,0,0,0,.75-.25l-.11,1.84,1.95-2.82,1.57,2.37,6.27.76.11-.32-1.32-.66,1.29,1.48c.49-2.07,1-4.14,1.48-6.21l1.54,1.55a18.69,18.69,0,0,1-2.35-1.1,3.36,3.36,0,0,1-1.2-1.31c-.67-1.38-1.22-2.83-1.94-4.52a9.4,9.4,0,0,0,1.11.26,10.06,10.06,0,0,0,1.23,0l-.6-1,.27-.07c-.44-1.73-.89-3.46-1.33-5.2l-.23.18c0-.42-.14-.91,0-1.23a2.28,2.28,0,0,1,1.05-.74,2.37,2.37,0,0,1,.81-.09c-.14-.25-.38-.48-.42-.75a43.24,43.24,0,0,1-.49-4.67c0-.3.84-.62,1.25-.9-.14-.09-.44-.27-.33-.21a14.67,14.67,0,0,1,1.25-2.89c.63-.86,1.63-1.45,2.34-2.27a6.33,6.33,0,0,0,.84-1.45c1.18-1.54,1.85-2.56,2.66-3.45,2.24-2.45,3.92.49,5.89.67.81.07,1.64,0,2.46,0Zm1.65,9.7.18.25c-1.24.68-2.42,1.73-3.74,2-1.89.33-1.29,1.82-1.83,2.78-.65,1.12-1.19,2.53-2.19,3.16-.67.42-1.91-.39-1.28,1.43,1.34,3.83,2.35,7.77,3.73,11.58a9.69,9.69,0,0,0,2.54,3.43,25.28,25.28,0,0,0,5.37,4.47c1.71.92,3.89,1,5.87,1.35a8.22,8.22,0,0,0,3.4.33,17.48,17.48,0,0,0,6.1-2.46,7.82,7.82,0,0,0,2.3-4.63,27.5,27.5,0,0,0,0-6.66,22.85,22.85,0,0,0-.94-4.29,23.82,23.82,0,0,0-1.09-2.7c-.5-1.19-1-2.4-1.53-3.55-.29-.57-1.23-1.19-1.11-1.53.7-2-1.05-2.29-2-3C208,77,206,75.72,204,74.43l-.71-.47.1.75ZM119,60.42a10,10,0,0,1-.26,1.71,15.93,15.93,0,0,0-1,2.68,7.61,7.61,0,0,0,.49,2.42l-.31,0,1.56,4.88c.63,1.35,1.43,2.77,1.37,4.15s0,2,1.42,2.27c.18,0,.31.64.39,1s0,1,.23,1.3c1,1.35,2.15,2.62,3.24,3.93l.18-.87c.76-.09,1.52-.25,2.29-.27.5,0,1.1.39,1.51.24,2.76-1,5.54-2.06,8.19-3.34,1.09-.53,1.87-1.7,2.8-2.56s1.82-1.61,3.4-3c2.48-9-4-13-11.53-16.22a2.71,2.71,0,0,0,.47-.59c0-.07-.28-.32-.43-.49l-.58.56-3.22-1.36-.3,1.09c-1.23-.53-2.37-1.06-3.54-1.49-.21-.08-.6.13-.82.32a19.39,19.39,0,0,1-2.23,2A27.61,27.61,0,0,1,119,60.42Zm106,22,.87-.5a7.23,7.23,0,0,0-1.18-.77c-.16-.06-.47.22-.71.34ZM210.29,68l.13.47,1.86-.42a3.08,3.08,0,0,0-.26-.56C211.44,67.64,210.86,67.83,210.29,68Z"/><path d="M322.73,101.19a7.38,7.38,0,0,1-.23,1.61,1.37,1.37,0,0,1-.77.76c-1.09.24-2.21.37-3.72.6,3.19,1.11,2.11,1.73-.1,2.28l3.35.8c-5.07,4-9.93,7-17.09,6.75a8.4,8.4,0,0,1-1.85.39,27,27,0,0,1-3.6,0c-3.48-.17-4.53.17-8-.46-4.34-.8-2-1-5.15-2.41a30.72,30.72,0,0,1-3.05-1.92c-2.47-1.48-4.83-3.14-7.23-4.73-1.2-.79-2.46-1.49-3.58-2.36-1.83-1.43-3.55-3-5.36-4.46-1.63-1.31-3.35-2.52-5-3.85-1.08-.89-2-2-3.07-2.89-.73-.65-1.54-1.21-2.28-1.85-1.21-1-2.34-2.18-3.6-3.15a6.16,6.16,0,0,0-1.88-.66,6.46,6.46,0,0,1-.29,1.17,11.65,11.65,0,0,1-.8,1.29c2.65.32,2.13,1.88,1.36,3.65,1,.28,3.15-.28,1.84,2.13-.07.13.89.67,1.12,1.14s0,1,.06,2.1c1.2,1,1.06,2.82.89,5-.14,1.87.94,3.82,1.43,5.74a22.89,22.89,0,0,0,.61,3,4.87,4.87,0,0,0,1.62,2.28c2.33,1.46.59,3.51,1,5.23-1.19,0-2.37,0-3.55.06s-2.4-.22-3.1.32c-3.43,2.68-7.15,2.08-8.84-2-1.93-4.71-3.37-9.63-5-14.46-1.07-3.13-2.2-6.24-3.19-9.4-.57-1.82-.89-3.71-1.36-5.57a2.47,2.47,0,0,0-.87-1.57c-.47-1.67-.89-3.36-1.44-5a48.69,48.69,0,0,0-2-5.23c-.45-1-1.44-1.71-1.85-2.69-.94-2.23-1.67-4.55-2.48-6.83l.77-.37-1.38-.46c.17-.25.47-.55.41-.63-2.49-4,1.88-3.1,3.14-4,3.58-2.45,7.64-4.34,12.08-3.51,1.66.32,3.12,2.23,4.45,3.62,1.94,2,3.6,4.29,5.54,6.31,2.14,2.23,4.5,4.25,6.7,6.44.64.63,1,1.56,1.58,2.23A16.61,16.61,0,0,0,260.72,77c6.56,5.57,9.07,11.26,16,16.37,5.77,4.26,10.41,10.2,18,11.32a14.07,14.07,0,0,0,7.64-1.93c3.55-2.78,3.71-3.87,3.34-8.23a60,60,0,0,0-1.76-10.23c-.42-1.55-1.94-2.79-2.85-4.24-.46-.74-.59-1.7-1.05-2.46-1.89-3.1-5.83-6.37-6.61-10,0-.14-6.89-4.59-7.76-5.18-1.29-.88-2.47-1.91-3.7-2.89-.2-.16-.3-.51-.51-.59-1.86-.68-3.95-1-5.55-2-2.08-1.38-3.63,0-5.45.17a4.52,4.52,0,0,1-3.48-1.16A41.78,41.78,0,0,1,263.37,50l-1.26,1.36-.59-.7,3.84-2.84.84,1.73c.25-.23.6-.42.73-.7,1-2.39,2.76-.88,4.23-.82a18.54,18.54,0,0,0,2.78.09c1.56-.17,3.09-.6,4.64-.74s3.09-.06,4.54-.07c.09.43.13,1.28.3,1.31a16.83,16.83,0,0,0,2.93.14,14,14,0,0,1,3.16-.1c.51.11.7,1.3,1.26,1.64,1.09.67,2.41,1,3.5,1.65,1.54.94,3,2.08,4.44,3.14,1.19.87,2.35,1.76,3.53,2.63a9.48,9.48,0,0,1,1.52,1.09c1.93,2.22,3.79,4.5,5.71,6.74.43.5,1.1.84,1.41,1.4a9.9,9.9,0,0,1,.52,2.38L313.89,71l-1.77,1.18c.2.06.56.14.9.27.6.23,1.7.51,1.69.73a4.88,4.88,0,0,1-.76,2.16,4.53,4.53,0,0,1-.93,1.12l2.85,3.69,1.33-.81.28.35-1,1.07c.25,1.65.47,3.11.6,4l3.34.54c-.43.82-.86,1.63-1.24,2.37a23,23,0,0,1,1.7,3.83c.13.49-.7,1.3-1.2,1.87-.24.28-.73.33-1.11.49.24.28.45.75.74.81s.73-.25,1.82-.67c-.82,1.28-1.68,2.07-1.76,2.93s.78,1.55,1.22,2.33c.22.4.34.92.67,1.16A8.23,8.23,0,0,0,322.73,101.19Zm-13.17-29.3-1,.78c.24.2.51.57.72.54a3,3,0,0,0,.95-.56Zm4.78,14.18.24.54,2.23-1.09a1.8,1.8,0,0,0-1.37,0A7.18,7.18,0,0,0,314.34,86.07Zm2.73,21.33-1.88,1.15a8.13,8.13,0,0,0,1.79,0C317.08,108.58,317,107.92,317.07,107.4Z"/><path d="M55.09,80.59c7.29-.7,9.5,1.1,12.27,10.09-1.81,1-3.68,2-5.43,3.12-.27.18-.21,1.31.06,1.8.76,1.38,1.77,2.63,2.57,4,1.32,2.23,2.55,4.52,3.82,6.78.53.94,1.13,1.86,1.59,2.84.17.39,0,.91,0,.63,1.35,1.85,2.45,3.33,3.52,4.84s2.31,3.29,3.41,5c2,3.08,4,6.19,6,9.3s3.92,5.9,5.67,9-.27,6.08-3.92,6.29c-.63,0-1.19.75-1.85,1-.85.33-1.86.9-2.63.69-1.21-.32-2.74-.93-3.31-1.9-1.28-2.17-1.95-4.69-3-7-1.33-2.81-2.71-5.6-4.29-8.27-1.18-2-2.76-3.73-4-5.67-.7-1.06-1-2.36-1.68-3.46-1.48-2.46-3.15-4.81-4.57-7.31-1.14-2-2-4.14-3-6.17-.61-1.15-1.49-2.16-2.17-3.29-.8-1.35-1.48-2.77-2.28-4.12a.91.91,0,0,0-.87-.25c-2.21,1.09-4.34,2.33-6.58,3.33A25,25,0,0,1,40,103.15c-1.89.46-4.1.38-5.63,1.37-.89.58-.84,2.78-1,4.27-.34,2.81.46,5.84.44,8.7,0,3-.52,5.85-.24,8.91.39,4.42.65,17.9-1.58,18.76-5.29,2.05-2.54-.44-6.29-1.34-1.86-.44-2.27-.35-3.39-1.61-.1-.27-2.8-3.56-3-4.5-.65-3.27-.24-6.75-.26-10.16,0-1.6-.15-3.2-.09-4.79.15-3.93-.86-7.93-.62-11.85.07-1.16.34-2.32.51-3.48.48-3.24-.11-6.53.18-9.78.43-4.89.61-9.79.95-14.68.07-1.14.48-2.26.51-3.39q.27-10.08.42-20.17C20.93,56,21,52.48,20.83,49c0-1.29-.73-2.54-.88-3.84s0-2.58,0-3.87q-.17-4.89-.43-9.78c-.16-2.8-.68-5.61-.5-8.38s2.47-3,4.53-2.36a16.32,16.32,0,0,1,5.66,2.76c.9.76.71,2.71,1.24,4,1.29,3.26,2.76,6.45,4.08,9.69,1.6,3.92,3,7.91,4.71,11.8,1.36,3.16,3,6.2,4.46,9.33,1.28,2.72,2.43,5.51,3.72,8.23,1.39,2.94,2.89,5.83,4.35,8.74.89,1.79,1.78,3.58,2.71,5.36A2.85,2.85,0,0,0,55.09,80.59Zm-9,6.26L31.69,55.54a7.29,7.29,0,0,0-.55,1.61c.05,3.33.28,6.67.17,10-.25,7.55-.67,15.08-1,22.62,0,.7-.06,1.7.35,2s1.38.1,2-.1A35,35,0,0,0,37.26,90a9.4,9.4,0,0,0,2-1.77,4.35,4.35,0,0,1,2.91-.8,2.52,2.52,0,0,0,1.47.48A13.12,13.12,0,0,0,46.07,86.85Z"/><path d="M85.46,100.72a6.73,6.73,0,0,1,1.82.56,5.51,5.51,0,0,1,.86,1.23c.45.68.86,1.4,1.37,2,2.53,3.13,5.19,3.08,9,1.34,2.4-1.1,2.76-2.44,3-4.58a3,3,0,0,1,1.77-2c1.72-.58,3.89-1.51,5.3-.92,2.45,1,5.55,2,5.74,5.65,0,.24.26.47.38.7s.19.38.4.85l-1.19-.51-1,2.34-.28-.18-.08,1.9-1.56-.46.3,1.52c-.61.66-1,1.12-1.65,1.82.21,0-.3,0-.32,0-.69,2.7-3.31,1.72-5,2.49a20,20,0,0,1-7,2,24.35,24.35,0,0,1-7.5-1,24.76,24.76,0,0,1-7.42-2.94c-2-1.3-3.28-3.56-4.89-5.39-.25-.28-.55-.52-.79-.8-3.94-4.49-5.91-9.94-7.63-15.52-1-3.23-2-6.44-2.81-9.73-.29-1.21.15-2.6.26-3.91A37,37,0,0,1,66,71.35c0-1,1.11-1.93,1.62-2.93.09-.18-.35-.58-.4-.89a10.3,10.3,0,0,1-.19-2.7c0-.28.92-.45,1.62-.77,0,0-.06-.29-.15-.68l1.24.12-.26-.35.91-3.1c-.06.07.34-.2.32-.45-.1-1.45.41-2.17,2-1.94.12,0,.45-.4.41-.49-1.16-2.42-.18-3.54,2.18-4.35A7.27,7.27,0,0,0,78.43,50a36.38,36.38,0,0,1,3.44-1.53,5.46,5.46,0,0,1,2.58-.33c2.51.44,5.29.53,7.39,1.75s3.54,3.49,5,5.53a30.38,30.38,0,0,1,2.8,5.69c.81,2,1.43,4,2.14,6a42,42,0,0,1,2.17,6.37,14.42,14.42,0,0,1-.5,5,38.92,38.92,0,0,1-1.21,4.44c-.11.33-.51.57-.77.86l-1.79,2a30.68,30.68,0,0,1-3.84,1.09c-2.38.41-4.8.67-7.21.9-1.57.15-3.15.16-4.73.2a11,11,0,0,1-1.72-.1c-.58-.08-1.16-.23-1.74-.35A11.18,11.18,0,0,1,81,89.12c.29,1.24.45,2.51.77,3.74a8.18,8.18,0,0,0,.88,1.81c1,1.79,2,3.54,2.94,5.37C85.79,100.37,85.39,101,85.46,100.72Zm.12-22.49a38.78,38.78,0,0,0,4-1.38c.81-.37,2.06-1.08,2.07-1.64a53.06,53.06,0,0,0-.57-9.52c-.33-1.93-1.55-3.72-2.46-5.52a25.38,25.38,0,0,0-2.1-3.41c-.25-.35-1.16-.72-1.29-.59C83,58.38,80.36,60.39,78.82,63c-1.35,2.31-1.7,5.34-2,8.1-.17,1.72-.68,4.12,1.75,5S83.27,77.56,85.58,78.23Z"/><path d="M468.32,101.79c-.05-1.07-.1-2.14-.16-3.58-.35,0,0,0,.13,0-.36-1.72-.7-3.36-1.12-5.4l-.34-.14.59-.44L466.25,91l1.17-.54c-.6-.54-1.51-1-1.69-1.59a11.6,11.6,0,0,1-.53-4.39c.32-2.71,1.1-5.37,1.49-8.07.1-.72-.55-1.54-.86-2.34l1.17.34c.12-1.26.22-2.46.34-3.66a.38.38,0,0,1,.14-.27A37,37,0,0,1,472.41,68c.73-.26,1.45-.49,2.17-.77a11.81,11.81,0,0,1,1.2-.56,38.28,38.28,0,0,1,4.8-1.1c1.83-.22,3.69-.12,5.54-.27.16,0,.26-.78.4-1.23,1,.48,2.25,1.1,3.5,1.6,1.61.64,3.24,1.24,4.89,1.77.94.31,1.93.45,3,.7l4.37,2,2.49,2.1-.61.85a7.26,7.26,0,0,1,1.75-.24,5.14,5.14,0,0,1,1.92.57c1.19.67,2.31,1.47,3.46,2.22a2.57,2.57,0,0,1,.49.38c1.13,1.25,2.25,2.51,3.41,3.74.95,1,2.06,1.9,2.9,3,.36.45.16,1.31.3,2,.34,1.56.73,3.12,1.11,4.71l.22-.11,2.45,4.21-1.86.41a19.14,19.14,0,0,1,1.69,1.7c.19.26.31.9.15,1.07a2.2,2.2,0,0,0,.17,3.44c-.16.76-.3,1.41-.46,2.21l-1.81-.53,1.06,1.42-1.39.91c1.87,1.92-.87,2.08-1.84,3.26l2.2,0-2.71,1.88-.48-.45-1.17,2.93c-.57-.06-1.63-.18-2.7-.24-.09,0-.3.4-.28.59a4.45,4.45,0,0,0,.33,1l-.94-.52-3.81,1.93v.75l-3.48-.73.13.44-2.93.45a11.58,11.58,0,0,1-1.16.17c-.76.05-1.54,0-2.3.09-1.78.18-3.63.79-5.31.48s-4,.6-5.43-1.65c-.31-.51-2.11-.08-3.23-.09-.8,0-1.6-.07-2.39,0a9.39,9.39,0,0,0-2.66.46c-2,.78-5.26-4.24-7.3-3.7m10.15,3.45c-1.2.78-3.12.43-4.68.74a5.79,5.79,0,0,0-2.08,1.06c-.3.21-.38.73-.56,1.11a18.07,18.07,0,0,0-1.78-1.62c-.5-.36-1.26-.85-1.72-.7-1.59.51-2.78.59-3.23-1.42-.06-.28-.64-.5-1-.64a11.74,11.74,0,0,0-2.3-.64,10.73,10.73,0,0,0-2.4,0,4,4,0,0,0-1,.43c-.06-.29,0-.68-.19-.83a4.33,4.33,0,0,0-1.61-1.07c-1.62-.4-3.31-.54-4.92-1-.56-.15-.91-1-1.47-1.26-.27-.14-.82.18-1.21.36-.18.09-.31.53-.4.51-1.42-.26-2.85-.49-4.23-.88s-2.32-2.28-3.83-.39c-.09.11-.57-.11-.88-.15-4.15-.49-8.33-.85-12.45-1.51-1.54-.25-3-1.23-4.42-1.85-.34-.14-.77-.36-1.07-.27-1.72.54-3.41,1.17-5.11,1.76l-.61-.85,2.6-.85-.62-.79-6.2,1.25c-.23.22-.81.79-.78.75l-2.39-1.7c-.09.77-.19,1.53-.27,2.18a18.46,18.46,0,0,0-1.91-.93,4,4,0,0,0-1.1-.08l.58-1.27a36.2,36.2,0,0,0-4.84-.23,4.93,4.93,0,0,0-3,1.1c-1.69,1.86-3.53,2.33-5.44,1-1.09,1.92-.23,2.68,1.75,2.69a6.43,6.43,0,0,1-.52.83c-.09.1-.31.09-.49.13l2,2c-.2.54-.69,1.24-.52,1.48.33.47,1,.67,1.57,1a5.94,5.94,0,0,1,1.4.85c.12.12-.24.7.07,1.54a4.5,4.5,0,0,0-.64.9c-.28.7-.48,1.43-.87,2.61l2.77-1.16c-.18.56-.3.89-.22.67l2.12,1-1.53.38c.77,1.5,1.62,3.18,2.51,4.85.13.25.44.41.67.61l.93.89c-.37,0-.85-.21-1.09,0a7.43,7.43,0,0,0-2.3,1.94c-1.16,1.94-2.24,3.88-4.87,3.85-1.82,0-3.81.23-5.41-.42-1.18-.47-1.87-2.18-2.74-3.37-1-1.38-1.88-2.87-3-4.19-1.87-2.28,0-2.26,1.55-2.8a8.37,8.37,0,0,1-2.36-.75,5.87,5.87,0,0,1-1.34-1.89c-.11-.18,0-.63-.09-.68-1.83-.77-2-1.61.25-2.54-1.89-1-3.63-1.52-4.89-2.64-.43-.38.38-2.14.65-3.42a6.49,6.49,0,0,1-2.23-.57c-.7-.37-1.09-1.33-1.4-1.76-.32-1.3-.5-2-.64-2.65-.66-3.25-2.66-1.21-4.16-1.05-.89.1-1.77.38-2.66.5-3.66.49-7.33.91-11,1.42-1.22.17-2.88,1.17-3.54.69-2.64-1.93-4.66.69-7,.54-3.17-.2-4.84-2.94-3.39-5.75.09-.18.48-.19.72-.3s1-.31,1-.56c.09-.43-.22-.93-.25-1.41-.08-1.27-.1-2.54-.14-3.81,0-.6-.31-1.52,0-1.75,3.31-2.72,6.46-5.75,10.15-7.8,1.79-1,4.62-.13,7,0,.82,0,2.28.56,2.35.41a11.8,11.8,0,0,0,.94-3.77c0-.53-.87-1-1.14-1.67a6.25,6.25,0,0,0-1-2.16l-6.86-17c.38.28,0,0-.47-.33l.32-.34c-.53-1.61-1-2.84-1.34-4.09-.93-3.1-1.13-3.43-3.16-2.12a23.77,23.77,0,0,0-5.49,5.25c-1.23,1.58-1.52,3.93-2.85,5.38A25.75,25.75,0,0,1,339,70c-.34.21-1.58-.81-2.22-1.45-1.9-1.85-1.3-6.37.66-8.17A48.88,48.88,0,0,0,341.9,55c.14-.18.24-.56.34-.55,2,.14,2.81-.76,2.43-2.75,0,0,.59-.16.84-.34.47-.34.85-.8,1.33-1.11.63-.41,1.41-.62,2-1.08,1.12-.89,2.09-2,3.23-2.83a7,7,0,0,1,2-.68l-.46-.44,1-1.48c.11-.18.24-.35.36-.53,1.72,2,2.53-1.19,4-.74a9.33,9.33,0,0,0,1.06-1.74c-.55.34-.47.25-.41.26,1.74.26,3.17,1,4.73-1.25,1.28-1.83,4-2.77,6.27-3.76A26.62,26.62,0,0,1,377,34.1c3.84-.64,7.71-1,11.38-1.44L387.18,32l4.26-.3c1.75-.11,3.5-.2,5.24-.33a32.75,32.75,0,0,1,4.6-.41c5.77.39,11.54.92,17.31,1.43,3.34.29,6.76.29,10,1a16.6,16.6,0,0,1,6,3.3c1.83,1.44,3.24,3.4,4.91,5.07.42.42,1.1.6,1.31,1.51l2.27,1.34c.06,1-3,1.84-.44,3.52.13.07-.36.94-.39,1.45-.07,1.41-.39,3.2,2.45,1.39L441,55.72l.64.12-.38,2.31a3.6,3.6,0,0,1,1.09.65c.27.27.47,1.1.33,1.22a40.88,40.88,0,0,0-5.11,4.43c-.44.74-.83,1.51-1.31,2.22a37.5,37.5,0,0,1-2.32,3.25c-1.29,1.56-3.33,2.84-3.86,4.59-1,3.35-4.1,2.23-6,3.65l.61,1-.91-.22c-.28.57-.57,1.14-.85,1.72-.07.15-.11.46-.16.46-1.64-.06-2.53.6-2.3,2.36-.71-.06-1.43-.14-2.15-.15-.27,0-.54.13-.86.77,3.85.77,7.72,1.49,11.56,2.34a3.33,3.33,0,0,1,1.66,1.26,5.51,5.51,0,0,0,6.58,1.4c.23-.14.78-.18.9,0a4.65,4.65,0,0,0,5.9,1.65c1.12-.41,2.76.7,4.18,1a41.85,41.85,0,0,1,4.8,1.1,5,5,0,0,1,2.7,2.07c.61,1.33.87,2.26,2.44,1.12a1.21,1.21,0,0,1,.94-.08c1.29.42,2.56.88,3.82,1.37a21.23,21.23,0,0,1,2,1c.17.09.31.42.43.4,1.49-.21,5.15-.63,4.44-.69M426.52,66.6c-.14-1.2-.9-3.11-.34-3.64,2.25-2.15,2-4.35,1.66-7.13-.37-3.12-2-4.48-4.45-5.62-1.12-.53-2.21-1.12-3.29-1.73-1.36-.78-2.66-1.65-4-2.4a47.83,47.83,0,0,1-5-2.61c-1.45-1-2.53-1.49-3.63.29-.16.25-.47.66-.62.63a53.33,53.33,0,0,0-5.34-1.32,31,31,0,0,0-6.32-.12c-.8.07-1.52,1-2.28,1.54-1.3-2.63-3-.61-4.62-.51s-3.37-.88-4.67-.36-3.1-2.15-4.22.63c-.18.43-2.77-.1-3.69-.16-.57.8-.82,1.48-1.29,1.71s-1.19-.2-1.71,0c-1.09.35-2.57.6-3.08,1.4-.86,1.35-1.86,3.37-1.44,4.64.95,2.79,2.75,5.29,4.2,7.92.4.72.77,1.47,1.37,2.63.14-.28-.21.1-.13.31.82,2.09,1.66,4.17,2.6,6.2.48,1,1.31,1.87,1.75,2.9.66,1.51,1.1,3.11,1.64,4.68l-.29.11.88,2.9,1.11-.25c.65,1.26-1.7,3.71,1.6,3.71,0,0,0,.44.11.61.36.63.74,1.74,1.17,1.77,1.86.13,5.19.37,5.36-.22,1-3.22,4.09-.08,5.16-2.1,2.17,1.56,3.23-.38,4.61-1.41.37-.28.93-.28,1.37-.48a4.44,4.44,0,0,0,.88-.63c.36-.28.7-.79,1.05-.8,1.24,0,2.59.42,3.71.08a17.94,17.94,0,0,0,4-2.24c.21-.13.22-.57.43-.72a4.11,4.11,0,0,1,1.49-.81c.45-.08,1.18.49,1.41.3,2-1.59,3.88-3.23,5.73-5,1.51-1.42,2.89-3,4.41-4.54l-.81-1.3c1.1.35,1.72.56,2.35.75Zm78.83,20.89c.22-.28.7-.72.62-.85a6.42,6.42,0,0,0-1.24-1.6,3.45,3.45,0,0,0-1.14-.49l1-1.4L502,82.94a18.12,18.12,0,0,1-1.44-1.83c-.22-.32,0-1.12-.2-1.23-.81-.42-1.79-.52-2.56-1-.54-.33-.82-1.07-1.27-1.58a1.82,1.82,0,0,0-.79-.38c-1.07-.35-2.16-.67-3.22-1.06-.07,0,0-.54,0-.14a29.7,29.7,0,0,0-3.8-1.47,10.28,10.28,0,0,0-2.76.07c-.33,0-.66.14-1,.16-1,.07-2.2-.15-3.06.27-.58.29-.76,1.44-1,2.24-.09.25.07.59.13.88a5.29,5.29,0,0,1,.29,1.58c-.05.44-.46.84-.7,1.26-.51.87-.91,2.42-1.51,2.5-2.1.3-1.87,1.74-2,3.08-.09.89-.11,1.79-.18,3.19-.2-.21.26,0,.33.37.26,1.17.36,2.37.58,3.55.63,3.34,2.74,5.75,5,8.08a7.81,7.81,0,0,1,.92,2c.46.94.94,2,2.23.9a.84.84,0,0,0,.2.23c2.11,1.1,4.19,2.25,6.34,3.25a5.45,5.45,0,0,0,2.06,0c2,0,3.93.07,5.87-.1a7.4,7.4,0,0,0,3.48-1,16.62,16.62,0,0,0,3.06-3.25,6.71,6.71,0,0,0,.61-1.84,7.31,7.31,0,0,0,.87-.09c0-1.24-.15-2.47-.26-3.71-.41-.4-.05-.84.42-1.08.25-.13.67.07,1,.13a3.88,3.88,0,0,0-.39-1.07c-.35-.45-1-.74-1.21-1.23a9.8,9.8,0,0,1-.9-2.65c2.43-1.2.55-1.82-.29-2.5a9,9,0,0,0-1.47-.82l.7-.76Z"/><path d="M741.06,83.57c-.56.81-.75,1.35-1.11,1.54-.78.4-2.35,0-1.52,1.78a1.16,1.16,0,0,1-.53.39c-1.13.35-2.28.66-3.42,1l-.08.91c2.58,1.69,5.16,3.37,7.73,5.07,1.9,1.24,3.7,2.67,5.69,3.71,3.37,1.76,6.9,3.22,10.3,4.93,2.69,1.36,5.29,2.92,7.93,4.38.27.16.56.29.84.45a58.32,58.32,0,0,1,6.21,3.55,9,9,0,0,1,3.1,3.85c.21.58-1.43,2.33-2.54,2.78a11.61,11.61,0,0,1-5,.59,6.57,6.57,0,0,1-3-1.42c-2.45-1.77-4.68-3.89-7.25-5.43-3.18-1.91-6.62-3.36-9.94-5-3.61-1.82-7.17-3.72-10.81-5.45a22.56,22.56,0,0,0-4.31-1.29c-.24-.06-.69.29-.85.56s.26.52.36.8a14.6,14.6,0,0,0,.75,2.23c1.15,2.06,2.43,4,3.58,6.11,1,1.72,1.8,3.5,2.68,5.27,0,.1,0,.34,0,.39-1.43,1.12-2.76,2.82-4.37,3.17s-3.74-.32-5.41-1.06a6.55,6.55,0,0,1-2.55-2.86c-1.17-2.12-2-4.4-3.13-6.56-1-2-2.16-3.92-3.18-5.91s-2.12-4.13-3-6.26c-1.31-3.07-3.59-4.52-6.91-4.2-.17,0-.41.08-.46.19-.89,2-1.73,4-2.62,6-.08.2-.36.31-.54.47a4.14,4.14,0,0,0-1.37,1.75c-1.66,1.34-3.29,2.73-5,4a6.75,6.75,0,0,1-2,.65c-1.53.45-3.08.83-4.59,1.36s-2.88,1.23-4.35,1.77a24.14,24.14,0,0,1-2.41.57c-.43.11-.84.3-1.26.42a2.9,2.9,0,0,1-.65.07c-.26-1.85-1.19-.73-2-.57-.53.09-1.15-.48-1.75-.54-2-.18-4-.25-6.09-.38-.29-1.39-1.23-1.9-2.86-.91-.21.12-.63-.12-1-.19l.76-1.34A53.75,53.75,0,0,1,668,103.1c-.44-.19-.43-1.25-.84-1.73s-1.12-.67-1.63-1.07c-1.18-.93-2.33-1.9-3.36-2.75l.55-1.26a5.19,5.19,0,0,1-1.3,0c-.8-.19-1.58-.49-2.37-.74l.5-.55c-.82-.88-1.65-1.74-2.44-2.63a10.93,10.93,0,0,1-.79-1.21c-.79-1.18-1.65-2.32-2.34-3.56a33.76,33.76,0,0,1-1.56-3.53c-.07-.16,0-.43-.06-.54a33.93,33.93,0,0,1-3.9-4.63c-.61-1.06-.34-2.63-.52-4.46-.06-.21-.31-1.09-.59-1.95-.1-.32-.22-.8-.45-.88-2.2-.73-4.46-1.29-6.62-2.12-.84-.32-2.17-1.52-2-1.79.58-1.33,1.31-2.9,2.46-3.63,2.57-1.63,5.32-2.93,6.77-5.82.06-.12.18-.32.14-.37-1.47-2,1.66-3.06.94-5-.15-.39,1.56-1.39,2.31-2.2.58-.64.94-1.49,1.51-2.14s1.24-.85,1.67-1.41c.65-.84.9-2.19,1.71-2.67,5-2.93,9.69-6.75,16.1-5.23,3.15.75,6.61,1,9.35,2.46,2.13,1.17,5.6.94,6.31,4.43.11.51,1.46.75,2.19,1.18.26.15.36.55.58.79a10.91,10.91,0,0,0,1.58,1.67c1.66,1.24,1.67,2.69,1.24,4.61a5.63,5.63,0,0,0,.89,3.88c1,1.58,0,2.6-.43,3.83a1.38,1.38,0,0,0-.14.79c.66,1.72,0,2.32-1.67,3s-2.92,2.34-4.52,3.3c-.88.53-2.1.46-3.15.75-1.29.35-2.56.78-4.46,1.36.17-.07-.25.3-.59.24-1.29-.21-2.55-.63-3.85-.83a1.5,1.5,0,0,0-1.13.67c-1.14,1.78-2.63.47-4,.55a32.19,32.19,0,0,0-3.49.59,3.55,3.55,0,0,1-1.24.21c-1.27-.31-2.52-.74-3.93-1.17.08-.11-.07.34-.27.35-2.58.22-1,1.75-.63,2.47,1.45,2.49,3.16,4.82,4.65,7.29.59,1,.79,2.17,1.32,3.19.25.47.87.73,1.3,1.12,2,1.78,4,3.53,5.85,5.39.94.93,1.55,2.21,2.54,3.06A16.44,16.44,0,0,0,679,95.75c.6.34,1,1.13,1.64,1.27a32.79,32.79,0,0,0,3.85.36,26.39,26.39,0,0,0,4.21.44,12.78,12.78,0,0,0,3.49-1.07,18.09,18.09,0,0,0,3.28-1.43,17.25,17.25,0,0,0,3.76-2.85c.91-1,1.06-2.16-.92-2.51a9.88,9.88,0,0,1-3.48-1.42c-1.78-1.15-1.39-3.2-.13-5,.57-.81,3-2,1-3.76a.51.51,0,0,1-.07-.38,34.5,34.5,0,0,1,3.8-1.67,15.8,15.8,0,0,1,3.37-.54c1.35-.12,2.7-.09,4-.27.35,0,1-.72.91-.89-.94-2.4-2.11-4.72-3-7.15-.58-1.68-.45-3.63-1.14-5.24a19.94,19.94,0,0,0-3.09-4.35c-1.29-1.55-1.87-2.77-.43-4.82.91-1.31.5-3.52.8-5.3.25-1.54,1.15-3.15.9-4.57-.37-2.14.59-3,2-3.39-.29-.59-.48-1-.66-1.38.43-.08.88-.13,1.31-.24.65-.18,1.29-.41,1.65-.52,0-.82-.3-1.59-.06-1.81a5.82,5.82,0,0,1,1.89-.85,10.12,10.12,0,0,1,2-.72,48.7,48.7,0,0,1,5.88-.74,32.08,32.08,0,0,1,5.16.37c1.61.19,3.21.52,4.81.8.14,0,.25.17.38.19l7.08.91a5.09,5.09,0,0,1,1.54.18c2.54,1.3,5.38,2.27,7.47,4.1a43.9,43.9,0,0,1,7,8.27c1.28,1.88,1.73,4.33,2.62,6.5.2.48.88.78,1.06,1.26a8.61,8.61,0,0,1,.77,3.15c-.14,2.32.94,4.94-1.43,6.83-.29.23-.62.82-.51,1.09.83,2.16-1,3-2,4.27-1.32,1.77-2.51,3.64-3.84,5.41-.61.8-1.46,1.42-2.11,2.19-.78.92-1.44,2-2.22,2.86C741.42,83.61,740.91,83.62,741.06,83.57ZM711,53.38a1.92,1.92,0,0,1,.37,1.17c-.3,3.56,1.57,6.43,2.91,9.47.92,2.09,1.79,4.21,2.79,6.27.65,1.31,1.61,2.48,2.26,3.79.88,1.8,1.51,3.72,2.42,5.49.43.83,1.47,2.15,1.92,2a31.05,31.05,0,0,0,7.6-2.68c4.36-2.47,8.51-5.34,9.76-10.71.41-1.72,1.57-4.2.85-5-1.11-1.32.37-2.77-1.28-4.06C737.87,57,736,53.84,733.5,51.4A26.24,26.24,0,0,0,728,47.76a88.26,88.26,0,0,0-10.32-5.42c-1.46-.59-3.63-.05-5.23.59-.89.36-1.27,2-2,3.28,0-.06.74.57.64,1-.18.78-2.32,1.16-.17,2.37C711.42,49.84,711,51.66,711,53.38Zm-51.47,8.86.09.53a11.1,11.1,0,0,1,2.63-.07c3.67.81,7.24,0,10.84-.49,1.66-.21,3.47-.66,5-.23,2.49.71,3.76-1,5.11-2.19.39-.35-.58-2.25-.95-3.44a.82.82,0,0,0-.29-.42c-.92-.71-1.87-1.38-2.78-2.1-.56-.45-1.06-1-1.68-1.55,0,0,.12-.5,0-.54a15.74,15.74,0,0,0-3.88-1.53,27,27,0,0,0-7.06-.3A13.51,13.51,0,0,0,661.71,52a8.52,8.52,0,0,0-4.3,6.79c0,.15-.31.27-.84.72,0,.62,0,1.76,0,2.9Z"/><path d="M610,95.56l-4.41-1.73.64-1.7L603.74,92c0,.71.11,1.41.1,1.33A29.61,29.61,0,0,1,605.05,97c.71,4.07,1.19,8.22,2.05,12.24a47.42,47.42,0,0,0,2.35,6.66c.95,2.47.45,3.41-1.69,3.67a15.81,15.81,0,0,0-3.53,1.28c-2.3.89-2.33-1.46-2.92-3-.48-1.28-1-2.54-1.37-3.86-.73-2.6-1.36-5.25-2-7.88a23.66,23.66,0,0,0-.67-2.73c-.64-1.72-1.54-3.31-2.06-5.07-.42-1.41-.34-3-.69-4.51a21.84,21.84,0,0,0-1.26-2.8c-.2-.5-.47-1.29-.28-1.63,1.24-2.32.18-3.44-1.35-4.36-.32-.2-.65-.36-1-.54l.46-.67,2.25.32a24.39,24.39,0,0,1-3.24-2.22,6.87,6.87,0,0,1-1-2.18l1-.09c-1.18-3.28-2.44-6.76-3.7-10.24l.39-.12c-.53-2.47-1.07-4.94-1.53-7.09a8.83,8.83,0,0,0,1.5-1.41c.87-1.48,2.1-2.92,2.4-4.57.67-3.7,3.48-1.71,4.95-3.18.12-.12,1.18.89,1.65,1.55.59.84.94,2,1.55,2.78.91,1.27,2,2.39,2.93,3.63.09.12-.12.6-.14.66,3,4,5.93,8,9,12.06l-.78.61c.06.13.1.26.13.26,2.38-.13,2.27,2.56,3.18,4.1.59,1,1.2,2,2.13,3.58-.69,1.88,1.42,1.59,2.54,2.67,1.36,1.32,2.24,1.6,3.38,0-1.89-1.69-2-4.2-.82-6.49l-3.24-4.12,1.44-.94c-1.7-1-2.86-2.34-2.26-5.26.24-1.16-.55-2.59-.79-3.92a2,2,0,0,1,.33-1.2c.76-1.2,1-2.1-.45-2.8a4.56,4.56,0,0,1-1.43-1.8c-.83-1.36-1.49-2.88-2.39-4.17-1.71-2.47-.6-5.11-.37-7.72,0-.41.19-1,0-1.2-1.33-1.29-1.31-2.63-.19-4.16a27.3,27.3,0,0,1,2.56-3.63c.64-.62,1.86-.3,2.55-.89,1-.89,1.77-2.3,2.78-3.27.34-.32,1.24-.16,1.67.18a8.12,8.12,0,0,1,1.75,2.15c.47.78,1.21,1.82,1.07,2.55-1.28,6.77,3.47,9.57,5.91,13.86,1.64,2.89,3.65,5.47,5.18,8.43.7,1.36.62,3.32.93,5a3.59,3.59,0,0,0,.46.89l2.34,4.47c.23.44.44.88.39.78a22.63,22.63,0,0,0,1.32,3.68c.53.86,1.59,1.31,2,2.23A44.46,44.46,0,0,1,642,82.81c.6.45,1.75.84,2.18,1.74a59,59,0,0,1,2.21,6.37,4.64,4.64,0,0,0,.22.69c2.68,4.92,5.49,9.74,8,14.78,3,6,5.87,12.22,8.64,18.44,1.44,3.22,2.57,6.66,3.81,10a.73.73,0,0,1-.22.58c-2.5,1.17-5,2.8-7.53,3.3-2.18.43-4.89.75-6.07-2.86a19,19,0,0,0-1.93-3.46,2.07,2.07,0,0,1-.15-.34c-.91-2.86-1.75-5.77-2.76-8.58-.3-.82-1.21-1.28-1.61-2.07a7.25,7.25,0,0,1-.26-2.15c0-.42,0-1.09-.19-1.2a5.05,5.05,0,0,1-2.88-4.79c0-.69-.79-1.35-1.21-2-1-1.67-2.85-3.29-2.91-5-.06-2.22-1.08-2.93-2-4.23-.57-.85-.4-2.39-.89-3.37s-1.46-1.45-2-2.34a32.51,32.51,0,0,1-1.56-3.43,3.7,3.7,0,0,0-.61-.76c-.2.28-.56.54-.58.83a32.1,32.1,0,0,0-.1,4.49c.17,2.08.5,4.15.85,6.2.43,2.49.06,4.14-2.38,4.64-.82.16-1.64,1.21-2.23,2.08-1.83,2.72-4,1.65-6.1,1.13-1-.24-2-.49-3-.77-.18,0-.49-.32-.47-.38,1-3.4-1.86-3.11-3-4.43-1.36-1.62-3-2.91-4.33-4.56a10.22,10.22,0,0,1-1.77-3.66C609.07,97.08,609.78,96.16,610,95.56Zm22.73-26.9.08.35,2.23-.62-.11-.51Z"/><path d="M521,86.74l-1.45-1.13,1.25-.14-4-8.21,1.74-1.78-.67-.23c.43-1.24.8-2.5,1.32-3.69A33.45,33.45,0,0,1,521.41,67c.52-.83,1.51-1.35,2.18-2.1s1.27-1.72,1.9-2.58c.31-.44.53-1.07,1-1.28,1.93-.93,2.45-4.23,5.76-3.05,1.43.51,3.29-.22,4.95-.35,2.5-.2,5-.45,7.49-.51.53,0,1,.85,1.62,1.06.93.34,1.93.46,2.84.83l4.31,1-.1.23,5,1.58c0-.12-.23.61-.11.67,1.57.86,3.19,1.63,5.23,2.64.56,1.51,2.64,1.75,4.51,2.33.47.15,1.16.51,1.23.87.33,1.75,1.45,1.28,2.55,1.08a1.24,1.24,0,0,1,.76.11c1.56.85,3.2,2.59,4.63,2.43,3.72-.41,3.84,2.33,4.23,4.36a14.94,14.94,0,0,1-.35,6.58c-.27.94-2.07,1.6-3.3,2.07a13.33,13.33,0,0,1-3.64.6c-.55,0-1.18-.44-1.7-.33-1.86.39-3.67,1-5.53,1.38-.3.07-.71-.39-1,0l-3.24.42c-1.85.25-3.73.43-5.57.81-2.14.45-4.25,1.08-6.37,1.63-.31.08-.63.12-1.34.25l1.36-1.08a12.64,12.64,0,0,1-1.58.32c-.72.06-1.45,0-2.25,0l.13.63-2.11.29.06.2-4.24-.25-6.52.78a2.87,2.87,0,0,1-.58-.07,3.89,3.89,0,0,0,0,.9,21.3,21.3,0,0,0,.85,3.48,7.83,7.83,0,0,0,1.54,2c.28.33.74.53,1,.89,1.17,1.9,2.24,3.86,3.46,5.73.26.39,1.06.39,1.53.69,1.22.79,2.29,1.92,3.61,2.41a42,42,0,0,0,6.65,1.74,8.84,8.84,0,0,0,6.12-1.29c1.91-1,4.19-1.36,6.28-2.07a22.63,22.63,0,0,0,4.44-1.78,20.21,20.21,0,0,0,4.41-3.44c1.55-1.66,2.76-3.63,4.17-5.42a19.85,19.85,0,0,1,1.49-1.4A17.59,17.59,0,0,1,581,90.83a38.51,38.51,0,0,1,3.36-2.06,38.54,38.54,0,0,1,2.08,4.88,5.68,5.68,0,0,1-.84,5.47c-.48.58-.58,1.47-1.06,2-.83,1-2.52,1.74-2.59,2.68-.12,1.81-1.57,2-2.41,2.87a10.25,10.25,0,0,1-2.2,1.34c-.18.11-.46.29-.45.42.21,2.55-2.58,1.86-3.55,3.26-.48.71-2.27.48-2.82,1.19-2.24,2.84-5.42,3.12-8.57,3.73a48.72,48.72,0,0,0-6.09,1.79c-.37.13-.57,1-.89,1-1,.06-2-.16-2.92-.19-.51,0-1,.25-1.53.2a21.2,21.2,0,0,0-2.76-.32l-4.58-1.22c0-.22.08.14,0,.39s-.47.3-.72.45a5.11,5.11,0,0,0-.22-.66,6.28,6.28,0,0,0-.71-1.27,5.91,5.91,0,0,0-1.42-1.27c-.87-.53-1.82-.92-2.85-1.42,0,0,0-.32.08-.69l-1.25.12,0-.57-2.38-1,1-.92-2.86-.17c1.86-2.22-.74-2.71-1.32-3.94s-1.39-2.51-2.22-4c1-1.25-.76-4.29-3.86-5.53,1.68-1.64.29-2.87-.44-4.31a28.3,28.3,0,0,1-1.1-3.63c-.1-.29-.52-.5-.83-.68-.7-.4-1.41-.76-2.12-1.13l1.11-1,.51,1.62.67-.36ZM540.16,68l.26-.57A14.31,14.31,0,0,1,538,68c-2.88.16-5.78.12-8.64.41a2.5,2.5,0,0,0-1.66,1.78,31.85,31.85,0,0,0,.5,6.24c.08.45,1.18,1,1.78,1,1.82-.08,3.63-.47,5.44-.67,2.16-.24,4.32-.43,6.49-.63,2.32-.22,4.65-.44,7-.63,2.15-.17,4.3-.27,6.44-.48a2.2,2.2,0,0,0,1.23-.75c.21-.24.17-.71.25-1.07a9.73,9.73,0,0,1-1.1-.13c-1.1-.25-3.37,1.09-2.58-1.92l-3.17.13c-.11-.33-.17-.86-.32-.89-2.6-.54-5.22-1-7.82-1.52A6,6,0,0,1,540.16,68Z"/><path d="M469,61.25l-1-.76a3.4,3.4,0,0,1,1.1-.34,3,3,0,0,1,1,.51Z"/><path d="M431.21,86.85l1.41.35a3.92,3.92,0,0,1-.21.58c-.46-.09-.91-.22-1.37-.35Z"/><path d="M260.81,69.34c.1-.32.46-.28,0,0Z"/></svg>